<svg width="25" height="25" viewBox="0 0 25 25" fill="none" xmlns="http://www.w3.org/2000/svg">
<path d="M12.5006 0C19.3986 0 25 5.6014 25 12.4994C25 19.3986 19.3986 25 12.5006 25C5.6014 25 0 19.3986 0 12.4994C0 5.6014 5.6014 0 12.5006 0ZM6.1878 12.9857L11.0028 17.2743C11.1803 17.4344 11.4041 17.5119 11.6267 17.5119C11.8792 17.5119 12.133 17.4106 12.3168 17.2093L19.7599 9.07102C19.9237 8.89222 20.005 8.66717 20.005 8.44336C20.005 7.93073 19.5911 7.50938 19.0698 7.50938C18.8147 7.50938 18.5634 7.6119 18.3771 7.8132L11.5591 15.2676L7.43561 11.5941C7.25556 11.4354 7.03426 11.3566 6.8117 11.3566C6.29282 11.3566 5.87647 11.7754 5.87647 12.2893C5.87647 12.5456 5.9815 12.8007 6.1878 12.9857Z" fill="#5014B8"/>
</svg>
