<svg width="19" height="19" viewBox="0 0 19 19" fill="none" xmlns="http://www.w3.org/2000/svg">
<path d="M8.709 2.72839H2.71311C2.25877 2.72839 1.82303 2.90008 1.50176 3.20568C1.18049 3.51127 1 3.92576 1 4.35794V15.7647C1 16.1969 1.18049 16.6114 1.50176 16.917C1.82303 17.2226 2.25877 17.3943 2.71311 17.3943H14.7049C15.1592 17.3943 15.595 17.2226 15.9162 16.917C16.2375 16.6114 16.418 16.1969 16.418 15.7647V10.0613" stroke="white" stroke-width="1.5" stroke-linecap="round" stroke-linejoin="round"/>
<path d="M15.1332 1.50623C15.474 1.1821 15.9362 1 16.4181 1C16.9 1 17.3621 1.1821 17.7029 1.50623C18.0437 1.83037 18.2351 2.26999 18.2351 2.72839C18.2351 3.18679 18.0437 3.62641 17.7029 3.95055L9.56562 11.6909L6.1394 12.5057L6.99596 9.24657L15.1332 1.50623Z" stroke="white" stroke-width="1.5" stroke-linecap="round" stroke-linejoin="round"/>
</svg>
