<svg width="16" height="19" viewBox="0 0 16 19" fill="none" xmlns="http://www.w3.org/2000/svg">
<path fill-rule="evenodd" clip-rule="evenodd" d="M13.6 19H2.4C1.5168 19 0.8 18.2907 0.8 17.4167V3.95833H0V2.375H4.8V1.1875C4.8 0.532792 5.3384 0 6 0H10C10.66 0 11.2 0.531208 11.2 1.1875V2.375H16V3.95833H15.2V17.4167C15.2 18.2907 14.4832 19 13.6 19ZM2.4 17.0208C2.4 17.2393 2.5792 17.4167 2.8 17.4167H13.2C13.4208 17.4167 13.6 17.2393 13.6 17.0208V3.95833H2.4V17.0208ZM6.4 2.375H9.6V1.58333H6.4V2.375Z" fill="white"/>
</svg>
