<svg width="40" height="47" viewBox="0 0 40 47" fill="none" xmlns="http://www.w3.org/2000/svg">
<g clip-path="url(#clip0_105_6)">
<path d="M1.66078 47H28.499C28.8013 47 29.1005 46.9433 29.3821 46.833C29.4083 46.8225 29.4339 46.809 29.457 46.7929L37.7975 41.2043C38.9098 40.4586 39.5789 39.199 39.5789 37.8501V2.17533C39.5789 0.973659 38.6154 0 37.4276 0H11.8961C11.1367 0 10.3925 0.219998 9.75258 0.633495L1.40542 6.02868C1.36092 6.05764 1.30912 6.07181 1.2561 6.07489C0.555218 6.11741 0 6.70531 0 7.42508V45.3208C0 46.2482 0.743541 47 1.66078 47Z" fill="#5014B8"/>
<path d="M22.0893 47H27.4586C28.1321 47 28.6775 46.4485 28.6775 45.7675V7.30491C28.6775 6.62397 28.1321 6.07243 27.4586 6.07243H22.0893C21.4158 6.07243 20.8704 6.62397 20.8704 7.30491V45.7681C20.8704 46.4485 21.4158 47 22.0893 47Z" fill="#1FB2A6"/>
<path d="M11.6541 47H17.0234C17.6969 47 18.2424 46.4485 18.2424 45.7675V7.30491C18.2424 6.62397 17.6969 6.07243 17.0234 6.07243H11.6541C10.9806 6.07243 10.4352 6.62397 10.4352 7.30491V45.7681C10.4352 46.4485 10.9806 47 11.6541 47Z" fill="#D926A9"/>
<path d="M1.21892 47H6.58826C7.26172 47 7.80718 46.4485 7.80718 45.7675V7.30491C7.80718 6.62397 7.26172 6.07243 6.58826 6.07243H1.21892C0.545467 6.07243 0 6.62397 0 7.30491V45.7681C0 46.4485 0.545467 47 1.21892 47Z" fill="#A6ADBA"/>
</g>
<defs>
<clipPath id="clip0_105_6">
<rect width="39.5789" height="47" fill="white"/>
</clipPath>
</defs>
</svg>
